<svg id="Layer_1" data-name="Layer 1" xmlns="http://www.w3.org/2000/svg" xmlns:xlink="http://www.w3.org/1999/xlink" viewBox="0 0 766.39 282.87"><defs><style>.cls-1{fill:none;}.cls-2{clip-path:url(#clip-path);}.cls-3{fill:#f7931e;}.cls-4{fill:#fff;}.cls-5{fill:#ccc;}.cls-6{fill:#39b54a;}</style><clipPath id="clip-path" transform="translate(16.24 25.36)"><rect class="cls-1" x="2.15" y="4.64" width="728" height="212"/></clipPath></defs><title>Untitled-1</title><g class="cls-2"><rect class="cls-3" y="20.87" width="755.39" height="227.13"/><rect class="cls-4" x="641" y="21.87" width="90" height="261"/><rect class="cls-5" x="563.39" width="14" height="261"/><rect class="cls-4" x="7.39" y="201" width="759" height="17"/><rect class="cls-4" x="2.39" y="225" width="759" height="7"/><path class="cls-6" d="M687.71,18.23A63.39,63.39,0,0,0,585.35,68.29c0,3.37.77,63.1.77,63.1s60.47.32,62.65.32,4.33-.11,6.46-.32A63.42,63.42,0,0,0,687.71,18.23Z" transform="translate(16.24 25.36)"/><path d="M514,83.19a40.62,40.62,0,0,1,65.57,32.06c0,2.17-.5,40.42-.5,40.42l-40.12.21c-1.4,0-2.78-.08-4.14-.21A40.63,40.63,0,0,1,514,83.19Z" transform="translate(16.24 25.36)"/><path class="cls-5" d="M646.87,143.74a40.63,40.63,0,0,0-65.07,25.71,41.54,41.54,0,0,0-.49,6.35c0,2.16.49,40.41.49,40.41l40.13.21a40.62,40.62,0,0,0,24.94-72.68Z" transform="translate(16.24 25.36)"/></g></svg>